# xmcd CD database file
#
# Track frame offsets:
#	150
#	12017
#	31367
#	56385
#	76290
#	96152
#	130262
#	143857
#	189010
#	203082
#	222990
#	238375
#	252967
#	270487
#	286757
#	299810
#
# Disc length: 4164 seconds
#
# Revision: 0
# Processed by: cddbd v1.5.2PL0 Copyright (c) Steve Scherf et al.
# Submitted via: CDex 1.70beta2
#
DISCID=e8104210
DTITLE=Marc Hemmler Herb Ellis - Anniversary in Paris
DYEAR=1986
DGENRE=Jazz
TTITLE0=Anniversary In Paris
TTITLE1=Soft Winds
TTITLE2=Someone To Watch Over Me
TTITLE3=Satin Doll
TTITLE4=You Are The Sunshine Of My Life
TTITLE5=Misty
TTITLE6=Cute
TTITLE7=My Funny Valentine
TTITLE8=Shiny Stockings
TTITLE9=Rough Riding
TTITLE10=Blues For Boomer
TTITLE11=Bryan Song
TTITLE12=There Is No Greater Love
TTITLE13=The Lady Is A Tramp
TTITLE14=How About You
TTITLE15=How High The Moon
EXTD=YEAR: 1986
EXTT0=
EXTT1=
EXTT2=
EXTT3=
EXTT4=
EXTT5=
EXTT6=
EXTT7=
EXTT8=
EXTT9=
EXTT10=
EXTT11=
EXTT12=
EXTT13=
EXTT14=
EXTT15=
PLAYORDER=
